<mxfile host="Electron" agent="Mozilla/5.0 (Windows NT 10.0; Win64; x64) AppleWebKit/537.36 (KHTML, like Gecko) draw.io/26.1.1 Chrome/132.0.6834.210 Electron/34.3.3 Safari/537.36" version="26.1.1">
  <diagram id="V6Axgg5LUfyLGcrbRSLU" name="ページ1">
    <mxGraphModel dx="922" dy="837" grid="1" gridSize="10" guides="1" tooltips="1" connect="1" arrows="1" fold="1" page="1" pageScale="1" pageWidth="827" pageHeight="1169" math="0" shadow="0">
      <root>
        <mxCell id="0" />
        <mxCell id="1" parent="0" />
        <mxCell id="3" value="事務職員" style="shape=umlActor;verticalLabelPosition=bottom;verticalAlign=top;html=1;" parent="1" vertex="1">
          <mxGeometry x="30" y="170" width="30" height="60" as="geometry" />
        </mxCell>
        <mxCell id="qkdqU4J5GqFg_mMFGBF2-5" value="貸出履歴メニュー画面" style="shape=umlBoundary;whiteSpace=wrap;html=1;fillColor=#D5E8D4;" vertex="1" parent="1">
          <mxGeometry x="190" y="160" width="100" height="80" as="geometry" />
        </mxCell>
        <mxCell id="qkdqU4J5GqFg_mMFGBF2-6" value="書名検索" style="ellipse;shape=umlControl;whiteSpace=wrap;html=1;fillColor=#F8CECC;" vertex="1" parent="1">
          <mxGeometry x="500" y="150" width="83" height="90" as="geometry" />
        </mxCell>
        <mxCell id="qkdqU4J5GqFg_mMFGBF2-7" value="貸出履歴画面" style="shape=umlBoundary;whiteSpace=wrap;html=1;fillColor=#D5E8D4;" vertex="1" parent="1">
          <mxGeometry x="180" y="585" width="100" height="80" as="geometry" />
        </mxCell>
        <mxCell id="qkdqU4J5GqFg_mMFGBF2-13" value="貸出情報" style="ellipse;shape=umlEntity;whiteSpace=wrap;html=1;fillColor=#D4E1F5;" vertex="1" parent="1">
          <mxGeometry x="735" y="475" width="80" height="80" as="geometry" />
        </mxCell>
        <mxCell id="qkdqU4J5GqFg_mMFGBF2-14" value="図書情報" style="ellipse;shape=umlEntity;whiteSpace=wrap;html=1;fillColor=#D4E1F5;" vertex="1" parent="1">
          <mxGeometry x="735" y="160" width="80" height="80" as="geometry" />
        </mxCell>
        <mxCell id="qkdqU4J5GqFg_mMFGBF2-16" value="" style="endArrow=classic;html=1;rounded=0;entryX=0.007;entryY=0.506;entryDx=0;entryDy=0;entryPerimeter=0;" edge="1" parent="1" source="3" target="qkdqU4J5GqFg_mMFGBF2-5">
          <mxGeometry width="50" height="50" relative="1" as="geometry">
            <mxPoint x="100" y="190" as="sourcePoint" />
            <mxPoint x="150" y="140" as="targetPoint" />
          </mxGeometry>
        </mxCell>
        <mxCell id="qkdqU4J5GqFg_mMFGBF2-17" value="" style="endArrow=classic;html=1;rounded=0;exitX=1.044;exitY=0.483;exitDx=0;exitDy=0;exitPerimeter=0;entryX=-0.009;entryY=0.537;entryDx=0;entryDy=0;entryPerimeter=0;" edge="1" parent="1" source="qkdqU4J5GqFg_mMFGBF2-5" target="qkdqU4J5GqFg_mMFGBF2-6">
          <mxGeometry width="50" height="50" relative="1" as="geometry">
            <mxPoint x="318" y="200" as="sourcePoint" />
            <mxPoint x="368" y="150" as="targetPoint" />
          </mxGeometry>
        </mxCell>
        <mxCell id="qkdqU4J5GqFg_mMFGBF2-18" value="" style="endArrow=classic;html=1;rounded=0;entryX=0.99;entryY=0.458;entryDx=0;entryDy=0;entryPerimeter=0;exitX=0.456;exitY=0.993;exitDx=0;exitDy=0;exitPerimeter=0;" edge="1" parent="1" source="qkdqU4J5GqFg_mMFGBF2-42" target="qkdqU4J5GqFg_mMFGBF2-7">
          <mxGeometry width="50" height="50" relative="1" as="geometry">
            <mxPoint x="570" y="560" as="sourcePoint" />
            <mxPoint x="350" y="440" as="targetPoint" />
            <Array as="points">
              <mxPoint x="558" y="625" />
            </Array>
          </mxGeometry>
        </mxCell>
        <mxCell id="qkdqU4J5GqFg_mMFGBF2-19" value="" style="endArrow=classic;html=1;rounded=0;entryX=0.993;entryY=0.613;entryDx=0;entryDy=0;entryPerimeter=0;" edge="1" parent="1" source="qkdqU4J5GqFg_mMFGBF2-42" target="qkdqU4J5GqFg_mMFGBF2-24">
          <mxGeometry width="50" height="50" relative="1" as="geometry">
            <mxPoint x="500" y="550" as="sourcePoint" />
            <mxPoint x="265" y="480" as="targetPoint" />
            <Array as="points">
              <mxPoint x="480" y="551" />
            </Array>
          </mxGeometry>
        </mxCell>
        <mxCell id="qkdqU4J5GqFg_mMFGBF2-20" value="" style="endArrow=classic;html=1;rounded=0;exitX=0.162;exitY=0.919;exitDx=0;exitDy=0;exitPerimeter=0;entryX=1.022;entryY=0.587;entryDx=0;entryDy=0;entryPerimeter=0;" edge="1" parent="1" source="qkdqU4J5GqFg_mMFGBF2-6" target="qkdqU4J5GqFg_mMFGBF2-22">
          <mxGeometry width="50" height="50" relative="1" as="geometry">
            <mxPoint x="490" y="300" as="sourcePoint" />
            <mxPoint x="540" y="250" as="targetPoint" />
            <Array as="points">
              <mxPoint x="490" y="300" />
            </Array>
          </mxGeometry>
        </mxCell>
        <mxCell id="qkdqU4J5GqFg_mMFGBF2-21" value="「該当する図書がありません」と表示する" style="ellipse;shape=umlControl;whiteSpace=wrap;html=1;fillColor=#F8CECC;" vertex="1" parent="1">
          <mxGeometry x="310" y="370" width="90" height="100" as="geometry" />
        </mxCell>
        <mxCell id="qkdqU4J5GqFg_mMFGBF2-22" value="「署名を入力してください」と表示する" style="ellipse;shape=umlControl;whiteSpace=wrap;html=1;fillColor=#F8CECC;" vertex="1" parent="1">
          <mxGeometry x="310" y="240" width="90" height="100" as="geometry" />
        </mxCell>
        <mxCell id="qkdqU4J5GqFg_mMFGBF2-24" value="「貸出履歴がありません」&lt;div&gt;と表示する&lt;/div&gt;" style="ellipse;shape=umlControl;whiteSpace=wrap;html=1;fillColor=#F8CECC;" vertex="1" parent="1">
          <mxGeometry x="310" y="490" width="90" height="100" as="geometry" />
        </mxCell>
        <mxCell id="qkdqU4J5GqFg_mMFGBF2-25" value="" style="endArrow=classic;html=1;rounded=0;exitX=0.946;exitY=0.343;exitDx=0;exitDy=0;exitPerimeter=0;entryX=0.106;entryY=0.252;entryDx=0;entryDy=0;entryPerimeter=0;" edge="1" parent="1" source="qkdqU4J5GqFg_mMFGBF2-6" target="qkdqU4J5GqFg_mMFGBF2-14">
          <mxGeometry width="50" height="50" relative="1" as="geometry">
            <mxPoint x="500" y="220" as="sourcePoint" />
            <mxPoint x="550" y="170" as="targetPoint" />
          </mxGeometry>
        </mxCell>
        <mxCell id="qkdqU4J5GqFg_mMFGBF2-26" value="確認" style="text;html=1;align=center;verticalAlign=middle;resizable=0;points=[];autosize=1;strokeColor=none;fillColor=none;" vertex="1" parent="1">
          <mxGeometry x="630" y="150" width="50" height="30" as="geometry" />
        </mxCell>
        <mxCell id="qkdqU4J5GqFg_mMFGBF2-27" value="" style="endArrow=block;dashed=1;endFill=0;endSize=12;html=1;rounded=0;entryX=1.017;entryY=0.689;entryDx=0;entryDy=0;entryPerimeter=0;exitX=0.013;exitY=0.641;exitDx=0;exitDy=0;exitPerimeter=0;" edge="1" parent="1" source="qkdqU4J5GqFg_mMFGBF2-14" target="qkdqU4J5GqFg_mMFGBF2-6">
          <mxGeometry width="160" relative="1" as="geometry">
            <mxPoint x="380" y="370" as="sourcePoint" />
            <mxPoint x="540" y="370" as="targetPoint" />
          </mxGeometry>
        </mxCell>
        <mxCell id="qkdqU4J5GqFg_mMFGBF2-29" value="書名を入力し検索ボタンを押す" style="text;html=1;align=center;verticalAlign=middle;resizable=0;points=[];autosize=1;strokeColor=none;fillColor=none;" vertex="1" parent="1">
          <mxGeometry x="300" y="150" width="190" height="30" as="geometry" />
        </mxCell>
        <mxCell id="qkdqU4J5GqFg_mMFGBF2-31" value="貸出履歴メニューを押す" style="text;html=1;align=center;verticalAlign=middle;resizable=0;points=[];autosize=1;strokeColor=none;fillColor=none;" vertex="1" parent="1">
          <mxGeometry x="40" y="150" width="160" height="30" as="geometry" />
        </mxCell>
        <mxCell id="qkdqU4J5GqFg_mMFGBF2-32" value="" style="endArrow=classic;html=1;rounded=0;exitX=0.42;exitY=1.043;exitDx=0;exitDy=0;exitPerimeter=0;entryX=0.984;entryY=0.598;entryDx=0;entryDy=0;entryPerimeter=0;" edge="1" parent="1" source="qkdqU4J5GqFg_mMFGBF2-6" target="qkdqU4J5GqFg_mMFGBF2-21">
          <mxGeometry width="50" height="50" relative="1" as="geometry">
            <mxPoint x="414" y="430" as="sourcePoint" />
            <mxPoint x="464" y="380" as="targetPoint" />
            <Array as="points">
              <mxPoint x="490" y="430" />
            </Array>
          </mxGeometry>
        </mxCell>
        <mxCell id="qkdqU4J5GqFg_mMFGBF2-33" value="書籍が未入力" style="text;html=1;align=center;verticalAlign=middle;resizable=0;points=[];autosize=1;strokeColor=none;fillColor=none;" vertex="1" parent="1">
          <mxGeometry x="400" y="240" width="100" height="30" as="geometry" />
        </mxCell>
        <mxCell id="qkdqU4J5GqFg_mMFGBF2-34" value="該当する図書がない" style="text;html=1;align=center;verticalAlign=middle;resizable=0;points=[];autosize=1;strokeColor=none;fillColor=none;" vertex="1" parent="1">
          <mxGeometry x="380" y="370" width="130" height="30" as="geometry" />
        </mxCell>
        <mxCell id="qkdqU4J5GqFg_mMFGBF2-35" value="" style="endArrow=classic;html=1;rounded=0;entryX=0.538;entryY=1.02;entryDx=0;entryDy=0;entryPerimeter=0;exitX=-0.02;exitY=0.59;exitDx=0;exitDy=0;exitPerimeter=0;" edge="1" parent="1" source="qkdqU4J5GqFg_mMFGBF2-24" target="qkdqU4J5GqFg_mMFGBF2-5">
          <mxGeometry width="50" height="50" relative="1" as="geometry">
            <mxPoint x="225" y="540" as="sourcePoint" />
            <mxPoint x="210" y="320" as="targetPoint" />
            <Array as="points">
              <mxPoint x="244" y="540" />
            </Array>
          </mxGeometry>
        </mxCell>
        <mxCell id="qkdqU4J5GqFg_mMFGBF2-36" value="該当する&lt;br&gt;貸出履歴件数が0" style="text;html=1;align=center;verticalAlign=middle;resizable=0;points=[];autosize=1;strokeColor=none;fillColor=none;" vertex="1" parent="1">
          <mxGeometry x="400" y="490" width="110" height="40" as="geometry" />
        </mxCell>
        <mxCell id="qkdqU4J5GqFg_mMFGBF2-37" value="" style="endArrow=classic;html=1;rounded=0;exitX=0.046;exitY=0.62;exitDx=0;exitDy=0;exitPerimeter=0;entryX=0.671;entryY=1.011;entryDx=0;entryDy=0;entryPerimeter=0;" edge="1" parent="1" source="qkdqU4J5GqFg_mMFGBF2-21" target="qkdqU4J5GqFg_mMFGBF2-5">
          <mxGeometry width="50" height="50" relative="1" as="geometry">
            <mxPoint x="265" y="480" as="sourcePoint" />
            <mxPoint x="250" y="260" as="targetPoint" />
            <Array as="points">
              <mxPoint x="260" y="430" />
            </Array>
          </mxGeometry>
        </mxCell>
        <mxCell id="qkdqU4J5GqFg_mMFGBF2-38" value="" style="endArrow=classic;html=1;rounded=0;entryX=0.8;entryY=1;entryDx=0;entryDy=0;entryPerimeter=0;exitX=0.005;exitY=0.498;exitDx=0;exitDy=0;exitPerimeter=0;" edge="1" parent="1" source="qkdqU4J5GqFg_mMFGBF2-22" target="qkdqU4J5GqFg_mMFGBF2-5">
          <mxGeometry width="50" height="50" relative="1" as="geometry">
            <mxPoint x="326.03861275687404" y="281.1249747297846" as="sourcePoint" />
            <mxPoint x="260" y="250.00000000000006" as="targetPoint" />
            <Array as="points">
              <mxPoint x="280" y="281" />
            </Array>
          </mxGeometry>
        </mxCell>
        <mxCell id="qkdqU4J5GqFg_mMFGBF2-39" value="&lt;div&gt;&lt;span style=&quot;background-color: transparent; color: light-dark(rgb(0, 0, 0), rgb(255, 255, 255));&quot;&gt;一致する図書の&lt;/span&gt;&lt;span style=&quot;background-color: transparent; color: light-dark(rgb(0, 0, 0), rgb(255, 255, 255));&quot;&gt;一覧表示&lt;/span&gt;&lt;/div&gt;" style="ellipse;shape=umlControl;whiteSpace=wrap;html=1;fillColor=#F8CECC;" vertex="1" parent="1">
          <mxGeometry x="520" y="320" width="83" height="90" as="geometry" />
        </mxCell>
        <mxCell id="qkdqU4J5GqFg_mMFGBF2-40" value="" style="endArrow=classic;html=1;rounded=0;exitX=0.626;exitY=0.985;exitDx=0;exitDy=0;exitPerimeter=0;" edge="1" parent="1" source="qkdqU4J5GqFg_mMFGBF2-6" target="qkdqU4J5GqFg_mMFGBF2-39">
          <mxGeometry width="50" height="50" relative="1" as="geometry">
            <mxPoint x="680" y="401" as="sourcePoint" />
            <mxPoint x="650" y="320" as="targetPoint" />
            <Array as="points" />
          </mxGeometry>
        </mxCell>
        <mxCell id="qkdqU4J5GqFg_mMFGBF2-41" value="書名が部分一致" style="text;html=1;align=center;verticalAlign=middle;resizable=0;points=[];autosize=1;strokeColor=none;fillColor=none;" vertex="1" parent="1">
          <mxGeometry x="560" y="260" width="110" height="30" as="geometry" />
        </mxCell>
        <mxCell id="qkdqU4J5GqFg_mMFGBF2-42" value="貸出履歴処理" style="ellipse;shape=umlControl;whiteSpace=wrap;html=1;fillColor=#F8CECC;" vertex="1" parent="1">
          <mxGeometry x="520" y="470" width="83" height="90" as="geometry" />
        </mxCell>
        <mxCell id="qkdqU4J5GqFg_mMFGBF2-43" value="" style="endArrow=classic;html=1;rounded=0;exitX=0.51;exitY=1.039;exitDx=0;exitDy=0;exitPerimeter=0;" edge="1" parent="1" source="qkdqU4J5GqFg_mMFGBF2-39">
          <mxGeometry width="50" height="50" relative="1" as="geometry">
            <mxPoint x="510" y="560" as="sourcePoint" />
            <mxPoint x="562" y="460" as="targetPoint" />
            <Array as="points" />
          </mxGeometry>
        </mxCell>
        <mxCell id="qkdqU4J5GqFg_mMFGBF2-44" value="" style="endArrow=classic;html=1;rounded=0;exitX=0.965;exitY=0.384;exitDx=0;exitDy=0;exitPerimeter=0;entryX=-0.027;entryY=0.368;entryDx=0;entryDy=0;entryPerimeter=0;" edge="1" parent="1" source="qkdqU4J5GqFg_mMFGBF2-42" target="qkdqU4J5GqFg_mMFGBF2-13">
          <mxGeometry width="50" height="50" relative="1" as="geometry">
            <mxPoint x="583" y="351" as="sourcePoint" />
            <mxPoint x="762" y="350" as="targetPoint" />
          </mxGeometry>
        </mxCell>
        <mxCell id="qkdqU4J5GqFg_mMFGBF2-45" value="貸出履歴件数確認" style="text;html=1;align=center;verticalAlign=middle;resizable=0;points=[];autosize=1;strokeColor=none;fillColor=none;" vertex="1" parent="1">
          <mxGeometry x="615" y="480" width="120" height="30" as="geometry" />
        </mxCell>
        <mxCell id="qkdqU4J5GqFg_mMFGBF2-46" value="" style="endArrow=block;dashed=1;endFill=0;endSize=12;html=1;rounded=0;entryX=0.956;entryY=0.73;entryDx=0;entryDy=0;entryPerimeter=0;exitX=0;exitY=1;exitDx=0;exitDy=0;" edge="1" parent="1" source="qkdqU4J5GqFg_mMFGBF2-13" target="qkdqU4J5GqFg_mMFGBF2-42">
          <mxGeometry width="160" relative="1" as="geometry">
            <mxPoint x="755" y="381" as="sourcePoint" />
            <mxPoint x="588" y="382" as="targetPoint" />
          </mxGeometry>
        </mxCell>
        <mxCell id="qkdqU4J5GqFg_mMFGBF2-47" value="履歴を閲覧したい&lt;br&gt;図書の管理番号を押す" style="text;html=1;align=center;verticalAlign=middle;resizable=0;points=[];autosize=1;strokeColor=none;fillColor=none;" vertex="1" parent="1">
          <mxGeometry x="560" y="410" width="140" height="40" as="geometry" />
        </mxCell>
      </root>
    </mxGraphModel>
  </diagram>
</mxfile>
